<?xml version="1.0" encoding="UTF-8" standalone="no"?>
<svg
   xmlns:dc="http://purl.org/dc/elements/1.1/"
   xmlns:cc="http://creativecommons.org/ns#"
   xmlns:rdf="http://www.w3.org/1999/02/22-rdf-syntax-ns#"
   xmlns:svg="http://www.w3.org/2000/svg"
   xmlns="http://www.w3.org/2000/svg"
   xmlns:sodipodi="http://sodipodi.sourceforge.net/DTD/sodipodi-0.dtd"
   xmlns:inkscape="http://www.inkscape.org/namespaces/inkscape"
   width="300mm"
   height="200mm"
   viewBox="0 0 300 200"
   version="1.1"
   id="svg3675"
   inkscape:version="1.0.1 (c497b03c, 2020-09-10)"
   sodipodi:docname="02.svg">
  <defs
     id="defs3669" />
  <sodipodi:namedview
     id="base"
     pagecolor="#ffffff"
     bordercolor="#666666"
     borderopacity="1.0"
     inkscape:pageopacity="0.0"
     inkscape:pageshadow="2"
     inkscape:zoom="7.9195959"
     inkscape:cx="570.71578"
     inkscape:cy="185.23341"
     inkscape:document-units="mm"
     inkscape:current-layer="layer2"
     inkscape:document-rotation="0"
     showgrid="true"
     width="200mm"
     inkscape:showpageshadow="false"
     borderlayer="false"
     inkscape:window-width="1920"
     inkscape:window-height="1035"
     inkscape:window-x="0"
     inkscape:window-y="23"
     inkscape:window-maximized="1">
    <inkscape:grid
       type="xygrid"
       id="grid4238"
       dotted="false"
       units="mm"
       spacingx="0.99999999"
       spacingy="0.99999999"
       empcolor="#339933"
       empopacity="0.25098039"
       color="#333399"
       opacity="0.25098039"
       originx="150"
       originy="99.999999" />
  </sodipodi:namedview>
  <metadata
     id="metadata3672">
    <rdf:RDF>
      <cc:Work
         rdf:about="">
        <dc:format>image/svg+xml</dc:format>
        <dc:type
           rdf:resource="http://purl.org/dc/dcmitype/StillImage" />
        <dc:title></dc:title>
      </cc:Work>
    </rdf:RDF>
  </metadata>
  <g
     inkscape:label="Guide"
     inkscape:groupmode="layer"
     id="layer1"
     sodipodi:insensitive="true">
    <g
       id="g9309"
       transform="matrix(2.0107581,0,0,2.0107581,-154.11605,-125.79284)">
      <path
         d="m 171.18696,122.42781 v -0.35278 h -39.53369 v -1.77412 h 39.18091 v 2.1269 h 0.35278 v -0.35278 0.35278 h 0.35278 v -2.47968 c 0,-0.0942 -0.0353,-0.18274 -0.10231,-0.24941 -0.067,-0.0667 -0.15522,-0.10337 -0.25047,-0.10337 h -39.88611 c -0.0931,0 -0.1838,0.0378 -0.24977,0.10337 -0.0656,0.0656 -0.10301,0.15663 -0.10301,0.24941 v 2.47968 c 0,0.0931 0.0374,0.18379 0.10301,0.24941 0.066,0.066 0.15664,0.10336 0.24977,0.10336 h 39.88611 c 0.0952,0 0.18345,-0.0367 0.25047,-0.10336 0.067,-0.0667 0.10231,-0.15522 0.10231,-0.24941 h -0.35278"
         style="fill:#939598;fill-opacity:1;fill-rule:nonzero;stroke:none;stroke-width:0.0352777"
         id="path6018" />
      <path
         d="m 96.69829,122.21155 v -0.35278 h -3.770489 v -6.1662 h 3.417359 v 6.51898 h 0.35313 v -0.35278 0.35278 h 0.352778 v -6.87176 c 0,-0.0952 -0.03775,-0.18344 -0.103364,-0.25047 -0.06597,-0.067 -0.156633,-0.1023 -0.249414,-0.1023 h -4.123266 c -0.09278,0 -0.183798,0.0353 -0.249414,0.1023 -0.06562,0.067 -0.103364,0.15522 -0.103364,0.25047 v 6.87176 c 0,0.0931 0.03775,0.1838 0.103364,0.24942 0.06562,0.066 0.156633,0.10336 0.249414,0.10336 h 4.123266 c 0.09278,0 0.183445,-0.0378 0.249414,-0.10336 0.06562,-0.0656 0.103364,-0.15664 0.103364,-0.24942 H 96.69829"
         style="fill:#939598;fill-opacity:1;fill-rule:nonzero;stroke:none;stroke-width:0.0352777"
         id="path6020" />
      <path
         d="m 94.284585,115.33979 v 6.87176 c 0,0.19473 0.157691,0.35278 0.352777,0.35278 0.194734,0 0.352778,-0.15805 0.352778,-0.35278 v -6.87176 c 0,-0.19402 -0.158044,-0.35277 -0.352778,-0.35277 -0.195086,0 -0.352777,0.15875 -0.352777,0.35277"
         style="fill:#939598;fill-opacity:1;fill-rule:nonzero;stroke:none;stroke-width:0.0352777"
         id="path6022" />
      <path
         d="m 105.50821,122.21155 v -0.35278 h -3.77155 l 3.5e-4,-6.1662 h 3.41806 v 6.51898 h 0.35313 v -0.35278 0.35278 h 0.35278 v -6.87176 c 0,-0.0952 -0.0378,-0.18344 -0.10337,-0.25047 -0.066,-0.067 -0.15663,-0.1023 -0.24941,-0.1023 h -4.12396 c -0.0931,0 -0.1838,0.0353 -0.24942,0.1023 -0.0656,0.067 -0.10336,0.15522 -0.10336,0.25047 v 6.87176 c 0,0.0931 0.0378,0.1838 0.10336,0.24942 0.0656,0.066 0.15628,0.10336 0.24942,0.10336 h 4.12397 c 0.0928,0 0.18344,-0.0378 0.24941,-0.10336 0.0656,-0.0656 0.10337,-0.15664 0.10337,-0.24942 h -0.35278"
         style="fill:#939598;fill-opacity:1;fill-rule:nonzero;stroke:none;stroke-width:0.0352777"
         id="path6024" />
      <path
         d="m 103.0945,115.33979 v 6.87176 c 0,0.19473 0.1577,0.35278 0.35278,0.35278 0.19473,0 0.35278,-0.15805 0.35278,-0.35278 v -6.87176 c 0,-0.19402 -0.15805,-0.35277 -0.35278,-0.35277 -0.19508,0 -0.35278,0.15875 -0.35278,0.35277"
         style="fill:#939598;fill-opacity:1;fill-rule:nonzero;stroke:none;stroke-width:0.0352777"
         id="path6026" />
      <path
         d="m 114.31777,122.21155 v -0.35278 h -3.77154 v -6.1662 h 3.41877 v 6.51898 h 0.35277 v -0.35278 0.35278 h 0.35278 v -6.87176 c 0,-0.0952 -0.0378,-0.18344 -0.10336,-0.25047 -0.0656,-0.067 -0.15663,-0.1023 -0.24942,-0.1023 h -4.12432 c -0.0931,0 -0.1838,0.0353 -0.24941,0.1023 -0.066,0.067 -0.10372,0.15522 -0.10372,0.25047 v 6.87176 c 0,0.0931 0.0377,0.1838 0.10372,0.24942 0.0656,0.066 0.15628,0.10336 0.24941,0.10336 h 4.12432 c 0.0928,0 0.1838,-0.0378 0.24942,-0.10336 0.0656,-0.0656 0.10336,-0.15664 0.10336,-0.24942 h -0.35278"
         style="fill:#939598;fill-opacity:1;fill-rule:nonzero;stroke:none;stroke-width:0.0352777"
         id="path6028" />
      <path
         d="m 111.90231,115.33979 v 6.87176 c 0,0.19473 0.15769,0.35278 0.35277,0.35278 0.19474,0 0.35278,-0.15805 0.35278,-0.35278 v -6.87176 c 0,-0.19402 -0.15804,-0.35277 -0.35278,-0.35277 -0.19508,0 -0.35277,0.15875 -0.35277,0.35277"
         style="fill:#939598;fill-opacity:1;fill-rule:nonzero;stroke:none;stroke-width:0.0352777"
         id="path6030" />
      <path
         d="m 123.12487,122.21155 v -0.35278 h -3.77013 v -6.1662 h 3.417 l 2.7e-4,6.51898 h 0.35277 v -0.35278 0.35278 h 0.35278 v -6.87176 c 0,-0.0952 -0.0378,-0.18344 -0.10336,-0.25047 -0.0656,-0.067 -0.15664,-0.1023 -0.24942,-0.1023 h -4.12291 c -0.0931,0 -0.1838,0.0353 -0.24977,0.1023 -0.0656,0.067 -0.10336,0.15522 -0.10336,0.25047 v 6.87176 c 0,0.0931 0.0378,0.1838 0.10336,0.24942 0.066,0.066 0.15663,0.10336 0.24977,0.10336 h 4.12291 c 0.0928,0 0.1838,-0.0378 0.24942,-0.10336 0.0656,-0.0656 0.10336,-0.15664 0.10336,-0.24942 h -0.35278"
         style="fill:#939598;fill-opacity:1;fill-rule:nonzero;stroke:none;stroke-width:0.0352777"
         id="path6032" />
      <path
         d="m 120.71117,115.33979 v 6.87176 c 0,0.19473 0.15769,0.35278 0.35278,0.35278 0.19473,0 0.35277,-0.15805 0.35277,-0.35278 v -6.87176 c 0,-0.19402 -0.15804,-0.35277 -0.35277,-0.35277 -0.19509,0 -0.35278,0.15875 -0.35278,0.35277"
         style="fill:#939598;fill-opacity:1;fill-rule:nonzero;stroke:none;stroke-width:0.0352777"
         id="path6034" />
      <path
         d="m 96.69829,138.0668 v -0.35278 h -3.770841 l 3.44e-4,-6.16691 h 3.417358 v 6.51969 h 0.353131 v -0.35278 0.35278 h 0.352777 v -6.87212 c 0,-0.0931 -0.03775,-0.18379 -0.103364,-0.24976 -0.06597,-0.0656 -0.156633,-0.10301 -0.249413,-0.10301 h -4.123267 c -0.09278,0 -0.183797,0.0374 -0.249414,0.10301 -0.06562,0.0656 -0.103364,0.15663 -0.103364,0.24976 v 6.87212 c 0,0.0928 0.03775,0.18379 0.103364,0.24941 0.06562,0.0656 0.156633,0.10336 0.249414,0.10336 h 4.123267 c 0.09278,0 0.183444,-0.0377 0.249413,-0.10336 0.06562,-0.0656 0.103364,-0.15663 0.103364,-0.24941 h -0.352777"
         style="fill:#939598;fill-opacity:1;fill-rule:nonzero;stroke:none;stroke-width:0.0352777"
         id="path6036" />
      <path
         d="m 94.284585,131.19468 v 6.87212 c 0,0.19473 0.157691,0.35277 0.352777,0.35277 0.194734,0 0.352778,-0.15804 0.352778,-0.35277 v -6.87212 c 0,-0.19508 -0.158044,-0.35277 -0.352778,-0.35277 -0.195086,0 -0.352777,0.15769 -0.352777,0.35277"
         style="fill:#939598;fill-opacity:1;fill-rule:nonzero;stroke:none;stroke-width:0.0352777"
         id="path6038" />
      <path
         d="m 105.50821,138.0668 v -0.35278 h -3.77155 l 3.5e-4,-6.16691 h 3.41771 l 3.4e-4,6.51969 h 0.35313 v -0.35278 0.35278 h 0.35278 v -6.87212 c 0,-0.0931 -0.0377,-0.18379 -0.10336,-0.24976 -0.066,-0.0656 -0.15664,-0.10301 -0.24942,-0.10301 h -4.12395 c -0.0931,0 -0.1838,0.0374 -0.24942,0.10301 -0.0656,0.0656 -0.10336,0.15663 -0.10336,0.24976 v 6.87212 c 0,0.0928 0.0378,0.18379 0.10336,0.24941 0.0656,0.0656 0.15628,0.10336 0.24942,0.10336 h 4.12397 c 0.0928,0 0.18344,-0.0377 0.24941,-0.10336 0.0656,-0.0656 0.10337,-0.15663 0.10337,-0.24941 h -0.35278"
         style="fill:#939598;fill-opacity:1;fill-rule:nonzero;stroke:none;stroke-width:0.0352777"
         id="path6040" />
      <path
         d="m 103.0945,131.19468 v 6.87212 c 0,0.19473 0.1577,0.35277 0.35278,0.35277 0.19473,0 0.35278,-0.15804 0.35278,-0.35277 v -6.87212 c 0,-0.19508 -0.15805,-0.35277 -0.35278,-0.35277 -0.19508,0 -0.35278,0.15769 -0.35278,0.35277"
         style="fill:#939598;fill-opacity:1;fill-rule:nonzero;stroke:none;stroke-width:0.0352777"
         id="path6042" />
      <path
         d="m 114.31777,138.0668 v -0.35278 h -3.77154 v -6.16691 h 3.41877 v 6.51969 h 0.35277 v -0.35278 0.35278 h 0.35278 v -6.87212 c 0,-0.0931 -0.0378,-0.18379 -0.10336,-0.24976 -0.0656,-0.0656 -0.15663,-0.10301 -0.24942,-0.10301 h -4.12432 c -0.0931,0 -0.1838,0.0374 -0.24941,0.10301 -0.066,0.0656 -0.10372,0.15663 -0.10372,0.24976 v 6.87212 c 0,0.0928 0.0377,0.18379 0.10372,0.24941 0.0656,0.0656 0.15628,0.10336 0.24941,0.10336 h 4.12432 c 0.0928,0 0.1838,-0.0377 0.24942,-0.10336 0.0656,-0.0656 0.10336,-0.15663 0.10336,-0.24941 h -0.35278"
         style="fill:#939598;fill-opacity:1;fill-rule:nonzero;stroke:none;stroke-width:0.0352777"
         id="path6044" />
      <path
         d="m 111.90231,131.19468 v 6.87212 c 0,0.19473 0.15769,0.35277 0.35277,0.35277 0.19474,0 0.35278,-0.15804 0.35278,-0.35277 v -6.87212 c 0,-0.19508 -0.15804,-0.35277 -0.35278,-0.35277 -0.19508,0 -0.35277,0.15769 -0.35277,0.35277"
         style="fill:#939598;fill-opacity:1;fill-rule:nonzero;stroke:none;stroke-width:0.0352777"
         id="path6046" />
      <path
         d="m 123.12487,138.0668 v -0.35278 h -3.77049 v -6.16691 h 3.41772 v 6.51969 h 0.35277 v -0.35278 0.35278 h 0.35278 v -6.87212 c 0,-0.0931 -0.0378,-0.18379 -0.10336,-0.24976 -0.0656,-0.0656 -0.15664,-0.10301 -0.24942,-0.10301 h -4.12291 c -0.0931,0 -0.1838,0.0374 -0.24977,0.10301 -0.0656,0.0656 -0.10336,0.15663 -0.10336,0.24976 v 6.87212 c 0,0.0928 0.0378,0.18379 0.10336,0.24941 0.066,0.0656 0.15663,0.10336 0.24977,0.10336 h 4.12291 c 0.0928,0 0.1838,-0.0377 0.24942,-0.10336 0.0656,-0.0656 0.10336,-0.15663 0.10336,-0.24941 h -0.35278"
         style="fill:#939598;fill-opacity:1;fill-rule:nonzero;stroke:none;stroke-width:0.0352777"
         id="path6048" />
      <path
         d="m 120.71117,131.19468 v 6.87212 c 0,0.19473 0.15769,0.35277 0.35278,0.35277 0.19473,0 0.35277,-0.15804 0.35277,-0.35277 v -6.87212 c 0,-0.19508 -0.15804,-0.35277 -0.35277,-0.35277 -0.19509,0 -0.35278,0.15769 -0.35278,0.35277"
         style="fill:#939598;fill-opacity:1;fill-rule:nonzero;stroke:none;stroke-width:0.0352777"
         id="path6050" />
      <path
         d="M 151.02218,82.746656 124.50035,100.32204 H 89.777143 c -0.08608,0 -0.167217,0.0318 -0.232128,0.0882 l -8.972902,7.82109 c -0.111125,0.0953 -0.150284,0.25047 -0.09843,0.38805 0.05151,0.14111 0.183091,0.22931 0.3302,0.22931 h 43.803007 c 0.19473,0 0.35278,-0.15522 0.35278,-0.35278 0,-0.19403 -0.15806,-0.35278 -0.35278,-0.35278 H 81.745452 l 8.16363,-7.11552 h 34.697808 c 0.0688,0 0.13758,-0.0212 0.19473,-0.06 l 26.60862,-17.631835 c 0.16228,-0.109361 0.20814,-0.328083 0.0988,-0.490361 -0.10584,-0.162278 -0.32456,-0.204611 -0.48684,-0.09878"
         style="fill:#939598;fill-opacity:1;fill-rule:nonzero;stroke:none;stroke-width:0.0352777"
         id="path6052" />
      <path
         d="m 151.08216,83.335795 26.6065,17.631835 c 0.0564,0.0388 0.127,0.06 0.19402,0.06 h 34.69923 l 8.15975,7.11552 h -42.85898 c -0.19402,0 -0.35277,0.15875 -0.35277,0.35278 0,0.19756 0.15875,0.35278 0.35277,0.35278 h 43.8009 c 0.14816,0 0.27869,-0.0882 0.33161,-0.22931 0.0529,-0.13758 0.0106,-0.2928 -0.0988,-0.38805 l -8.97114,-7.82108 c -0.0635,-0.0564 -0.14464,-0.0882 -0.23283,-0.0882 h -34.7239 L 151.47021,82.746656 c -0.16228,-0.105833 -0.381,-0.0635 -0.49036,0.09878 -0.10583,0.162278 -0.06,0.381 0.10231,0.490361"
         style="fill:#939598;fill-opacity:1;fill-rule:nonzero;stroke:none;stroke-width:0.0352777"
         id="path6054" />
      <path
         d="m 151.22327,86.299128 -22.41374,14.075832 c -0.10301,0.067 -0.1651,0.17639 -0.1651,0.29986 v 7.65881 c 0,0.0917 0.0377,0.18344 0.10337,0.25047 0.066,0.0635 0.15663,0.10231 0.24976,0.10231 h 2.26448 c 0.0931,0 0.1838,-0.0388 0.24942,-0.10231 0.0656,-0.067 0.10336,-0.15875 0.10336,-0.25047 v -5.74322 l 20.04236,-12.410726 c 0.16228,-0.102306 0.2152,-0.321028 0.11289,-0.486834 -0.1023,-0.165805 -0.32102,-0.215194 -0.48683,-0.112889 l -20.20676,12.513029 c -0.10442,0.0635 -0.16721,0.17639 -0.16721,0.29986 v 5.588 h -1.55893 v -7.112 l 22.24687,-13.973527 c 0.16581,-0.102306 0.2152,-0.321028 0.11289,-0.483306 -0.10583,-0.165806 -0.32103,-0.215194 -0.48683,-0.112889"
         style="fill:#939598;fill-opacity:1;fill-rule:nonzero;stroke:none;stroke-width:0.0352777"
         id="path6056" />
      <path
         d="m 150.89166,86.895323 22.24616,13.973527 v 7.112 h -1.55928 v -5.588 c 0,-0.12347 -0.0635,-0.23636 -0.1658,-0.29986 L 151.20563,89.579961 c -0.16581,-0.102305 -0.381,-0.05292 -0.48683,0.112889 -0.10231,0.165806 -0.0494,0.384528 0.11641,0.486834 l 20.03778,12.410726 v 5.74322 c 0,0.0917 0.0388,0.18344 0.10583,0.25047 0.0635,0.0635 0.15522,0.10231 0.24695,0.10231 h 2.26483 c 0.0952,0 0.18344,-0.0388 0.25047,-0.10231 0.067,-0.067 0.10231,-0.15875 0.10231,-0.25047 v -7.65881 c 0,-0.12347 -0.06,-0.23283 -0.16581,-0.29986 L 151.26913,86.299128 c -0.16581,-0.102305 -0.38453,-0.05292 -0.48683,0.112889 -0.10584,0.162278 -0.0529,0.381 0.10936,0.483306"
         style="fill:#939598;fill-opacity:1;fill-rule:nonzero;stroke:none;stroke-width:0.0352777"
         id="path6058" />
      <path
         d="m 131.26204,110.97593 v -0.35277 H 81.156313 v -1.77448 h 49.752957 v 2.12725 h 0.35277 v -0.35277 0.35277 h 0.35278 v -2.48002 c 0,-0.0917 -0.0367,-0.17992 -0.10336,-0.24695 -0.0667,-0.067 -0.15487,-0.10583 -0.24942,-0.10583 H 80.803888 c -0.09278,0 -0.183798,0.0388 -0.249414,0.10583 -0.06562,0.0635 -0.103364,0.15522 -0.103364,0.24695 v 2.48002 c 0,0.0952 0.03775,0.18345 0.103364,0.25048 0.06562,0.0635 0.156633,0.1023 0.249414,0.1023 h 50.458152 c 0.0945,0 0.18274,-0.0353 0.24942,-0.1023 0.0667,-0.067 0.10336,-0.15523 0.10336,-0.25048 h -0.35278"
         style="fill:#939598;fill-opacity:1;fill-rule:nonzero;stroke:none;stroke-width:0.0352777"
         id="path6060" />
      <path
         d="m 221.68358,110.97593 v -0.35277 h -50.10504 v -1.77448 h 49.75226 v 2.12725 h 0.35278 v -0.35277 0.35277 h 0.35278 v -2.48002 c 0,-0.0917 -0.0353,-0.17992 -0.10231,-0.24695 -0.067,-0.067 -0.15522,-0.10583 -0.25047,-0.10583 h -50.45781 c -0.0917,0 -0.18345,0.0388 -0.24695,0.10583 -0.067,0.0635 -0.10583,0.15522 -0.10583,0.24695 v 2.48002 c 0,0.0952 0.0388,0.18345 0.10583,0.25048 0.0635,0.0635 0.15522,0.1023 0.24695,0.1023 h 50.45781 c 0.0953,0 0.18344,-0.0353 0.25047,-0.1023 0.067,-0.067 0.10231,-0.15523 0.10231,-0.25048 h -0.35278"
         style="fill:#939598;fill-opacity:1;fill-rule:nonzero;stroke:none;stroke-width:0.0352777"
         id="path6062" />
      <path
         d="m 131.26204,141.54342 v -0.35278 h -1.91205 v -29.86193 h 1.55928 v 30.21471 h 0.35277 v -0.35278 0.35278 h 0.35278 v -30.56749 c 0,-0.0917 -0.0378,-0.18344 -0.10336,-0.25047 -0.0656,-0.0635 -0.15628,-0.1023 -0.24942,-0.1023 h -2.26448 c -0.0931,0 -0.18379,0.0388 -0.24976,0.1023 -0.0656,0.067 -0.10337,0.15875 -0.10337,0.25047 v 30.56749 c 0,0.0928 0.0377,0.1838 0.10337,0.24941 0.066,0.0656 0.15663,0.10337 0.24976,0.10337 h 2.26448 c 0.0931,0 0.1838,-0.0377 0.24942,-0.10337 0.0656,-0.0656 0.10336,-0.15663 0.10336,-0.24941 h -0.35278"
         style="fill:#939598;fill-opacity:1;fill-rule:nonzero;stroke:none;stroke-width:0.0352777"
         id="path6064" />
      <path
         d="m 87.219504,141.54342 v -0.35278 h -1.912055 v -29.86193 h 1.558924 v 30.21471 h 0.353131 v -0.35278 0.35278 h 0.352778 v -30.56749 c 0,-0.0917 -0.03775,-0.18344 -0.103364,-0.25047 -0.06597,-0.0635 -0.156633,-0.1023 -0.249414,-0.1023 h -2.264833 c -0.09313,0 -0.183797,0.0388 -0.249414,0.1023 -0.06597,0.067 -0.103717,0.15875 -0.103717,0.25047 v 30.56749 c 0,0.0928 0.03775,0.1838 0.103717,0.24941 0.06562,0.0656 0.15628,0.10337 0.249414,0.10337 h 2.264833 c 0.09278,0 0.183444,-0.0377 0.249414,-0.10337 0.06562,-0.0656 0.103364,-0.15663 0.103364,-0.24941 h -0.352778"
         style="fill:#939598;fill-opacity:1;fill-rule:nonzero;stroke:none;stroke-width:0.0352777"
         id="path6066" />
      <path
         d="m 215.79219,141.19064 h -0.11642 v -29.86193 h 1.55928 v 30.21471 c 0,0.19474 0.15875,0.35278 0.35278,0.35278 0.19403,0 0.35278,-0.15804 0.35278,-0.35278 v -30.56749 c 0,-0.0917 -0.0353,-0.18344 -0.10231,-0.25047 -0.067,-0.0635 -0.15522,-0.1023 -0.25047,-0.1023 h -2.26484 c -0.0917,0 -0.18344,0.0388 -0.25047,0.1023 -0.0635,0.067 -0.1023,0.15875 -0.1023,0.25047 v 30.56749 c 0,0.0928 0.0388,0.1838 0.1023,0.24941 0.067,0.0656 0.15875,0.10337 0.25047,0.10337 h 0.4692 c 0.19403,0 0.35278,-0.15804 0.35278,-0.35278 0,-0.19473 -0.15875,-0.35278 -0.35278,-0.35278"
         style="fill:#939598;fill-opacity:1;fill-rule:nonzero;stroke:none;stroke-width:0.0352777"
         id="path6068" />
      <path
         d="M 84.954671,141.8962 H 217.58783 c 0.19403,0 0.35278,-0.15804 0.35278,-0.35278 0,-0.19473 -0.15875,-0.35278 -0.35278,-0.35278 H 84.954671 c -0.195086,0 -0.352778,0.15805 -0.352778,0.35278 0,0.19474 0.157692,0.35278 0.352778,0.35278"
         style="fill:#939598;fill-opacity:1;fill-rule:nonzero;stroke:none;stroke-width:0.0352777"
         id="path6070" />
      <path
         d="m 173.54352,141.54342 v -0.35278 h -1.91206 v -29.86193 h 1.55928 v 30.21471 h 0.35278 v -0.35278 0.35278 h 0.35277 v -30.56749 c 0,-0.0917 -0.0353,-0.18344 -0.1023,-0.25047 -0.067,-0.0635 -0.15522,-0.1023 -0.25047,-0.1023 h -2.26484 c -0.0917,0 -0.18344,0.0388 -0.24694,0.1023 -0.067,0.067 -0.10583,0.15875 -0.10583,0.25047 v 30.56749 c 0,0.0928 0.0388,0.1838 0.10583,0.24941 0.0635,0.0656 0.15522,0.10337 0.24694,0.10337 h 2.26484 c 0.0952,0 0.18344,-0.0377 0.25047,-0.10337 0.067,-0.0656 0.1023,-0.15663 0.1023,-0.24941 h -0.35277"
         style="fill:#939598;fill-opacity:1;fill-rule:nonzero;stroke:none;stroke-width:0.0352777"
         id="path6072" />
      <path
         d="m 128.90796,127.71312 v -0.35278 H 88.201637 v -1.77447 h 40.353193 v 2.12725 h 0.35313 v -0.35278 0.35278 h 0.35278 v -2.48003 c 0,-0.0928 -0.0377,-0.18379 -0.10337,-0.24941 -0.066,-0.0656 -0.15663,-0.10336 -0.24941,-0.10336 H 87.849212 c -0.09313,0 -0.183797,0.0378 -0.249414,0.10336 -0.06597,0.0656 -0.103716,0.15663 -0.103716,0.24941 v 2.48003 c 0,0.0928 0.03775,0.1838 0.103716,0.24941 0.06562,0.0656 0.156281,0.10337 0.249414,0.10337 h 41.058748 c 0.0928,0 0.18344,-0.0377 0.24941,-0.10337 0.0656,-0.0656 0.10337,-0.15663 0.10337,-0.24941 h -0.35278"
         style="fill:#939598;fill-opacity:1;fill-rule:nonzero;stroke:none;stroke-width:0.0352777"
         id="path6074" />
      <path
         d="m 215.2348,127.71312 v -0.35278 h -40.70703 v -1.77447 h 40.35425 v 2.12725 h 0.35278 v -0.35278 0.35278 h 0.35278 v -2.48003 c 0,-0.0928 -0.0388,-0.18379 -0.10584,-0.24941 -0.0635,-0.0656 -0.15522,-0.10336 -0.24694,-0.10336 h -41.05981 c -0.0917,0 -0.18345,0.0378 -0.25047,0.10336 -0.0635,0.0656 -0.10231,0.15663 -0.10231,0.24941 v 2.48003 c 0,0.0928 0.0388,0.1838 0.10231,0.24941 0.067,0.0656 0.15875,0.10337 0.25047,0.10337 h 41.05981 c 0.0917,0 0.18344,-0.0377 0.24694,-0.10337 0.067,-0.0656 0.10584,-0.15663 0.10584,-0.24941 h -0.35278"
         style="fill:#939598;fill-opacity:1;fill-rule:nonzero;stroke:none;stroke-width:0.0352777"
         id="path6076" />
      <path
         d="m 183.02266,122.21155 v -0.35278 h -3.7712 v -6.1662 h 3.41842 v 6.51898 h 0.35278 v -0.35278 0.35278 h 0.35278 v -6.87176 c 0,-0.0952 -0.0353,-0.18344 -0.10231,-0.25047 -0.067,-0.067 -0.15522,-0.1023 -0.25047,-0.1023 h -4.12398 c -0.0917,0 -0.18344,0.0353 -0.24694,0.1023 -0.067,0.067 -0.10583,0.15522 -0.10583,0.25047 v 6.87176 c 0,0.0931 0.0388,0.1838 0.10583,0.24942 0.0635,0.066 0.15522,0.10336 0.24694,0.10336 h 4.12398 c 0.0952,0 0.18345,-0.0378 0.25047,-0.10336 0.067,-0.0656 0.10231,-0.15664 0.10231,-0.24942 h -0.35278"
         style="fill:#939598;fill-opacity:1;fill-rule:nonzero;stroke:none;stroke-width:0.0352777"
         id="path6078" />
      <path
         d="m 180.60966,115.33979 v 6.87176 c 0,0.19473 0.15522,0.35278 0.35278,0.35278 0.19403,0 0.35278,-0.15805 0.35278,-0.35278 v -6.87176 c 0,-0.19402 -0.15875,-0.35277 -0.35278,-0.35277 -0.19756,0 -0.35278,0.15875 -0.35278,0.35277"
         style="fill:#939598;fill-opacity:1;fill-rule:nonzero;stroke:none;stroke-width:0.0352777"
         id="path6080" />
      <path
         d="m 191.83152,122.21155 v -0.35278 h -3.76766 v -6.1662 h 3.41489 v 6.51898 h 0.35277 v -0.35278 0.35278 h 0.35278 v -6.87176 c 0,-0.0952 -0.0353,-0.18344 -0.1023,-0.25047 -0.0635,-0.067 -0.15523,-0.1023 -0.25048,-0.1023 h -4.12044 c -0.0952,0 -0.18345,0.0353 -0.25047,0.1023 -0.067,0.067 -0.10231,0.15522 -0.10231,0.25047 v 6.87176 c 0,0.0931 0.0353,0.1838 0.10231,0.24942 0.067,0.066 0.15522,0.10336 0.25047,0.10336 h 4.12044 c 0.0953,0 0.18698,-0.0378 0.25048,-0.10336 0.067,-0.0656 0.1023,-0.15664 0.1023,-0.24942 h -0.35278"
         style="fill:#939598;fill-opacity:1;fill-rule:nonzero;stroke:none;stroke-width:0.0352777"
         id="path6082" />
      <path
         d="m 189.41852,115.33979 v 6.87176 c 0,0.19473 0.15875,0.35278 0.35278,0.35278 0.19403,0 0.35278,-0.15805 0.35278,-0.35278 v -6.87176 c 0,-0.19402 -0.15875,-0.35277 -0.35278,-0.35277 -0.19403,0 -0.35278,0.15875 -0.35278,0.35277"
         style="fill:#939598;fill-opacity:1;fill-rule:nonzero;stroke:none;stroke-width:0.0352777"
         id="path6084" />
      <path
         d="m 200.64391,122.21155 v -0.35278 h -3.77472 v -6.1662 h 3.41842 v 6.51898 h 0.3563 v -0.35278 0.35278 h 0.35278 v -6.87176 c 0,-0.0952 -0.0388,-0.18344 -0.10583,-0.25047 -0.0635,-0.067 -0.15523,-0.1023 -0.24695,-0.1023 h -4.1275 c -0.0917,0 -0.18344,0.0353 -0.24694,0.1023 -0.067,0.067 -0.10584,0.15522 -0.10584,0.25047 v 6.87176 c 0,0.0931 0.0388,0.1838 0.10584,0.24942 0.0635,0.066 0.15522,0.10336 0.24694,0.10336 h 4.1275 c 0.0917,0 0.18345,-0.0378 0.24695,-0.10336 0.067,-0.0656 0.10583,-0.15664 0.10583,-0.24942 h -0.35278"
         style="fill:#939598;fill-opacity:1;fill-rule:nonzero;stroke:none;stroke-width:0.0352777"
         id="path6086" />
      <path
         d="m 198.22386,115.33979 v 6.87176 c 0,0.19473 0.15875,0.35278 0.35277,0.35278 0.19756,0 0.35278,-0.15805 0.35278,-0.35278 v -6.87176 c 0,-0.19402 -0.15522,-0.35277 -0.35278,-0.35277 -0.19402,0 -0.35277,0.15875 -0.35277,0.35277"
         style="fill:#939598;fill-opacity:1;fill-rule:nonzero;stroke:none;stroke-width:0.0352777"
         id="path6088" />
      <path
         d="m 209.44924,122.21155 v -0.35278 h -3.77119 v -6.1662 h 3.41842 v 6.51898 h 0.35277 v -0.35278 0.35278 h 0.35278 v -6.87176 c 0,-0.0952 -0.0353,-0.18344 -0.1023,-0.25047 -0.067,-0.067 -0.15523,-0.1023 -0.25048,-0.1023 h -4.12397 c -0.0917,0 -0.18344,0.0353 -0.24694,0.1023 -0.067,0.067 -0.10584,0.15522 -0.10584,0.25047 v 6.87176 c 0,0.0931 0.0388,0.1838 0.10584,0.24942 0.0635,0.066 0.15522,0.10336 0.24694,0.10336 h 4.12397 c 0.0953,0 0.18345,-0.0378 0.25048,-0.10336 0.067,-0.0656 0.1023,-0.15664 0.1023,-0.24942 h -0.35278"
         style="fill:#939598;fill-opacity:1;fill-rule:nonzero;stroke:none;stroke-width:0.0352777"
         id="path6090" />
      <path
         d="m 207.03272,115.33979 v 6.87176 c 0,0.19473 0.15875,0.35278 0.35277,0.35278 0.19756,0 0.35278,-0.15805 0.35278,-0.35278 v -6.87176 c 0,-0.19402 -0.15522,-0.35277 -0.35278,-0.35277 -0.19402,0 -0.35277,0.15875 -0.35277,0.35277"
         style="fill:#939598;fill-opacity:1;fill-rule:nonzero;stroke:none;stroke-width:0.0352777"
         id="path6092" />
      <path
         d="m 183.02266,138.0668 v -0.35278 h -3.7712 v -6.16691 h 3.41842 v 6.51969 h 0.35278 v -0.35278 0.35278 h 0.35278 v -6.87212 c 0,-0.0931 -0.0353,-0.18379 -0.10231,-0.24976 -0.067,-0.0656 -0.15522,-0.10301 -0.25047,-0.10301 h -4.12398 c -0.0917,0 -0.18344,0.0374 -0.24694,0.10301 -0.067,0.0656 -0.10583,0.15663 -0.10583,0.24976 v 6.87212 c 0,0.0928 0.0388,0.18379 0.10583,0.24941 0.0635,0.0656 0.15522,0.10336 0.24694,0.10336 h 4.12398 c 0.0952,0 0.18345,-0.0377 0.25047,-0.10336 0.067,-0.0656 0.10231,-0.15663 0.10231,-0.24941 h -0.35278"
         style="fill:#939598;fill-opacity:1;fill-rule:nonzero;stroke:none;stroke-width:0.0352777"
         id="path6094" />
      <path
         d="m 180.60966,131.19468 v 6.87212 c 0,0.19473 0.15522,0.35277 0.35278,0.35277 0.19403,0 0.35278,-0.15804 0.35278,-0.35277 v -6.87212 c 0,-0.19508 -0.15875,-0.35277 -0.35278,-0.35277 -0.19756,0 -0.35278,0.15769 -0.35278,0.35277"
         style="fill:#939598;fill-opacity:1;fill-rule:nonzero;stroke:none;stroke-width:0.0352777"
         id="path6096" />
      <path
         d="m 191.83152,138.0668 v -0.35278 h -3.76766 v -6.16691 h 3.41489 v 6.51969 h 0.35277 v -0.35278 0.35278 h 0.35278 v -6.87212 c 0,-0.0931 -0.0353,-0.18379 -0.1023,-0.24976 -0.0635,-0.0656 -0.15523,-0.10301 -0.25048,-0.10301 h -4.12044 c -0.0952,0 -0.18345,0.0374 -0.25047,0.10301 -0.067,0.0656 -0.10231,0.15663 -0.10231,0.24976 v 6.87212 c 0,0.0928 0.0353,0.18379 0.10231,0.24941 0.067,0.0656 0.15522,0.10336 0.25047,0.10336 h 4.12044 c 0.0953,0 0.18698,-0.0377 0.25048,-0.10336 0.067,-0.0656 0.1023,-0.15663 0.1023,-0.24941 h -0.35278"
         style="fill:#939598;fill-opacity:1;fill-rule:nonzero;stroke:none;stroke-width:0.0352777"
         id="path6098" />
      <path
         d="m 189.41852,131.19468 v 6.87212 c 0,0.19473 0.15875,0.35277 0.35278,0.35277 0.19403,0 0.35278,-0.15804 0.35278,-0.35277 v -6.87212 c 0,-0.19508 -0.15875,-0.35277 -0.35278,-0.35277 -0.19403,0 -0.35278,0.15769 -0.35278,0.35277"
         style="fill:#939598;fill-opacity:1;fill-rule:nonzero;stroke:none;stroke-width:0.0352777"
         id="path6100" />
      <path
         d="m 200.64391,138.0668 v -0.35278 h -3.77472 v -6.16691 h 3.41842 v 6.51969 h 0.3563 v -0.35278 0.35278 h 0.35278 v -6.87212 c 0,-0.0931 -0.0388,-0.18379 -0.10583,-0.24976 -0.0635,-0.0656 -0.15523,-0.10301 -0.24695,-0.10301 h -4.1275 c -0.0917,0 -0.18344,0.0374 -0.24694,0.10301 -0.067,0.0656 -0.10584,0.15663 -0.10584,0.24976 v 6.87212 c 0,0.0928 0.0388,0.18379 0.10584,0.24941 0.0635,0.0656 0.15522,0.10336 0.24694,0.10336 h 4.1275 c 0.0917,0 0.18345,-0.0377 0.24695,-0.10336 0.067,-0.0656 0.10583,-0.15663 0.10583,-0.24941 h -0.35278"
         style="fill:#939598;fill-opacity:1;fill-rule:nonzero;stroke:none;stroke-width:0.0352777"
         id="path6102" />
      <path
         d="m 198.22386,131.19468 v 6.87212 c 0,0.19473 0.15875,0.35277 0.35277,0.35277 0.19756,0 0.35278,-0.15804 0.35278,-0.35277 v -6.87212 c 0,-0.19508 -0.15522,-0.35277 -0.35278,-0.35277 -0.19402,0 -0.35277,0.15769 -0.35277,0.35277"
         style="fill:#939598;fill-opacity:1;fill-rule:nonzero;stroke:none;stroke-width:0.0352777"
         id="path6104" />
      <path
         d="m 209.44924,138.0668 v -0.35278 h -3.77119 v -6.16691 h 3.41842 v 6.51969 h 0.35277 v -0.35278 0.35278 h 0.35278 v -6.87212 c 0,-0.0931 -0.0353,-0.18379 -0.1023,-0.24976 -0.067,-0.0656 -0.15523,-0.10301 -0.25048,-0.10301 h -4.12397 c -0.0917,0 -0.18344,0.0374 -0.24694,0.10301 -0.067,0.0656 -0.10584,0.15663 -0.10584,0.24976 v 6.87212 c 0,0.0928 0.0388,0.18379 0.10584,0.24941 0.0635,0.0656 0.15522,0.10336 0.24694,0.10336 h 4.12397 c 0.0953,0 0.18345,-0.0377 0.25048,-0.10336 0.067,-0.0656 0.1023,-0.15663 0.1023,-0.24941 h -0.35278"
         style="fill:#939598;fill-opacity:1;fill-rule:nonzero;stroke:none;stroke-width:0.0352777"
         id="path6106" />
      <path
         d="m 207.03272,131.19468 v 6.87212 c 0,0.19473 0.15875,0.35277 0.35277,0.35277 0.19756,0 0.35278,-0.15804 0.35278,-0.35277 v -6.87212 c 0,-0.19508 -0.15522,-0.35277 -0.35278,-0.35277 -0.19402,0 -0.35277,0.15769 -0.35277,0.35277"
         style="fill:#939598;fill-opacity:1;fill-rule:nonzero;stroke:none;stroke-width:0.0352777"
         id="path6108" />
      <path
         d="m 142.55376,140.8862 v -0.35278 h -5.16785 v -9.81075 h 4.81507 v 10.16353 h 0.35278 v -0.35278 0.35278 h 0.35101 v -10.51596 c 0,-0.0942 -0.0353,-0.18273 -0.10231,-0.24941 -0.066,-0.0667 -0.15451,-0.10336 -0.2487,-0.10336 h -5.52027 c -0.0931,0 -0.1838,0.0374 -0.24977,0.10301 -0.0656,0.066 -0.10301,0.15663 -0.10301,0.24976 v 10.51596 c 0,0.0931 0.0374,0.18379 0.10301,0.24941 0.066,0.066 0.15664,0.10336 0.24977,0.10336 h 5.52027 c 0.0942,0 0.18273,-0.0367 0.2487,-0.10336 0.067,-0.0667 0.10231,-0.15522 0.10231,-0.24941 h -0.35101"
         style="fill:#939598;fill-opacity:1;fill-rule:nonzero;stroke:none;stroke-width:0.0352777"
         id="path6110" />
      <path
         d="m 165.45785,140.8862 v -0.35278 h -5.17172 v -9.8104 h 4.81542 l 0.004,10.16318 h 0.35277 v -0.35278 0.35278 h 0.34925 v -10.51596 c 0,-0.0942 -0.0353,-0.18273 -0.1023,-0.24941 -0.067,-0.0667 -0.15522,-0.10336 -0.24695,-0.10336 h -5.5245 c -0.0917,0 -0.18344,0.0374 -0.24694,0.10301 -0.067,0.066 -0.10583,0.15663 -0.10583,0.24976 v 10.51596 c 0,0.0931 0.0388,0.18379 0.10583,0.24941 0.0635,0.066 0.15522,0.10336 0.24694,0.10336 h 5.5245 c 0.0917,0 0.17992,-0.0367 0.24695,-0.10336 0.067,-0.0667 0.1023,-0.15522 0.1023,-0.24941 h -0.34925"
         style="fill:#939598;fill-opacity:1;fill-rule:nonzero;stroke:none;stroke-width:0.0352777"
         id="path6112" />
      <path
         d="m 154.00668,140.8862 v -0.35278 h -5.16819 v -9.8104 h 4.81542 v 10.16318 h 0.35277 v -0.35278 0.35278 h 0.35278 v -10.51596 c 0,-0.0942 -0.0388,-0.18273 -0.10583,-0.24941 -0.067,-0.0667 -0.15522,-0.10336 -0.24695,-0.10336 h -5.52097 c -0.0953,0 -0.18697,0.0374 -0.25047,0.10301 -0.067,0.066 -0.10231,0.15663 -0.10231,0.24976 v 10.51596 c 0,0.0931 0.0353,0.18379 0.10231,0.24941 0.0635,0.066 0.15522,0.10336 0.25047,0.10336 h 5.52097 c 0.0917,0 0.17992,-0.0367 0.24695,-0.10336 0.067,-0.0667 0.10583,-0.15522 0.10583,-0.24941 h -0.35278"
         style="fill:#939598;fill-opacity:1;fill-rule:nonzero;stroke:none;stroke-width:0.0352777"
         id="path6114" />
      <path
         d="m 142.55376,115.33979 v -0.35277 h -5.16785 v -9.80723 h 4.81507 v 10.16 h 0.35278 v -0.35277 0.35277 h 0.35454 v -10.51277 c 0,-0.0953 -0.0388,-0.18698 -0.10584,-0.25048 -0.0649,-0.067 -0.15593,-0.1023 -0.2487,-0.1023 h -5.52027 c -0.0931,0 -0.1838,0.0353 -0.24942,0.1023 -0.066,0.0635 -0.10371,0.15523 -0.10371,0.25048 v 10.51277 c 0,0.0953 0.0377,0.18345 0.10371,0.25048 0.0656,0.067 0.15629,0.1023 0.24942,0.1023 h 5.52027 c 0.0928,0 0.18379,-0.0353 0.2487,-0.1023 0.067,-0.067 0.10584,-0.15523 0.10584,-0.25048 h -0.35454"
         style="fill:#939598;fill-opacity:1;fill-rule:nonzero;stroke:none;stroke-width:0.0352777"
         id="path6116" />
      <path
         d="m 165.45785,115.33979 v -0.35277 h -5.17172 v -9.80723 h 4.81542 v 10.16 h 0.3563 v -0.35277 0.35277 h 0.35278 v -10.51277 c 0,-0.0953 -0.0388,-0.18698 -0.10583,-0.25048 -0.0635,-0.067 -0.15523,-0.1023 -0.24695,-0.1023 h -5.5245 c -0.0917,0 -0.18344,0.0353 -0.24694,0.1023 -0.067,0.0635 -0.10584,0.15523 -0.10584,0.25048 v 10.51277 c 0,0.0953 0.0388,0.18345 0.10584,0.25048 0.0635,0.067 0.15522,0.1023 0.24694,0.1023 h 5.5245 c 0.0917,0 0.18345,-0.0353 0.24695,-0.1023 0.067,-0.067 0.10583,-0.15523 0.10583,-0.25048 h -0.35278"
         style="fill:#939598;fill-opacity:1;fill-rule:nonzero;stroke:none;stroke-width:0.0352777"
         id="path6118" />
      <path
         d="m 154.00668,115.33979 v -0.35277 h -5.16819 v -9.80723 h 4.81542 v 10.16 h 0.35277 v -0.35277 0.35277 h 0.35278 v -10.51277 c 0,-0.0953 -0.0388,-0.18698 -0.10583,-0.25048 -0.0635,-0.067 -0.15522,-0.1023 -0.24695,-0.1023 h -5.52097 c -0.0953,0 -0.18697,0.0353 -0.25047,0.1023 -0.067,0.0635 -0.10231,0.15523 -0.10231,0.25048 v 10.51277 c 0,0.0953 0.0353,0.18345 0.10231,0.25048 0.0635,0.067 0.15522,0.1023 0.25047,0.1023 h 5.52097 c 0.0917,0 0.18345,-0.0353 0.24695,-0.1023 0.067,-0.067 0.10583,-0.15523 0.10583,-0.25048 h -0.35278"
         style="fill:#939598;fill-opacity:1;fill-rule:nonzero;stroke:none;stroke-width:0.0352777"
         id="path6120" />
      <path
         d="m 153.5763,98.099545 h -0.35278 c 0,0.550333 -0.22225,1.040694 -0.57856,1.400528 -0.35983,0.359833 -0.85019,0.582087 -1.40053,0.582087 -0.5468,0 -1.04069,-0.222254 -1.40052,-0.582087 -0.35631,-0.359834 -0.57856,-0.850195 -0.57856,-1.400528 0,-0.546805 0.22225,-1.037167 0.57856,-1.397 0.35983,-0.359833 0.85372,-0.582083 1.40052,-0.582083 0.55034,0 1.0407,0.22225 1.40053,0.582083 0.35984,0.359833 0.57856,0.850195 0.57856,1.397 h 0.35278 0.35277 c 0,-1.481667 -1.19944,-2.684639 -2.68464,-2.684639 -1.48166,0 -2.68463,1.202972 -2.68463,2.684639 0,1.485194 1.20297,2.688165 2.68463,2.688165 1.4852,0 2.68464,-1.202971 2.68464,-2.688165 h -0.35277"
         style="fill:#939598;fill-opacity:1;fill-rule:nonzero;stroke:none;stroke-width:0.0352777"
         id="path6122" />
    </g>
  </g>
  <g
     inkscape:groupmode="layer"
     id="layer2"
     inkscape:label="Home" />
</svg>
